<svg version="1.1" id="Layer_1" xmlns="http://www.w3.org/2000/svg" xmlns:xlink="http://www.w3.org/1999/xlink" x="0px"
	y="0px" width="100%" viewBox="0 0 4019 2475" enable-background="new 0 0 4019 2475" xml:space="preserve">
	<path fill="#EF3F24" opacity="1.000000" stroke="none" d="
M1958.000000,2478.000000 
	C1306.054321,2478.000000 654.108765,2478.000000 2.081553,2478.000000 
	C2.081553,1652.789917 2.081553,827.579712 2.081553,2.184786 
	C1341.765015,2.184786 2681.530029,2.184786 4022.000000,2.184786 
	C4022.000000,392.731842 4022.000000,783.464111 4021.259766,1174.595459 
	C4015.605225,1178.803589 4018.940430,1184.342773 4017.664062,1189.009033 
	C4010.970215,1213.482544 3999.269043,1234.964966 3978.965820,1250.407349 
	C3964.714600,1261.246582 3949.211914,1270.520142 3933.861328,1279.821655 
	C3819.100586,1349.359009 3704.241699,1418.734009 3589.407471,1488.150269 
	C3478.842041,1554.986450 3368.258301,1621.792603 3257.703125,1688.645874 
	C3092.217529,1788.715820 2926.775879,1888.859009 2761.259033,1988.877441 
	C2707.162842,2021.566772 2652.837158,2053.876221 2598.717529,2086.527588 
	C2565.690186,2106.453613 2532.896729,2126.768066 2499.922852,2146.783936 
	C2463.202148,2169.074219 2426.388184,2191.211670 2389.627686,2213.436768 
	C2247.995117,2299.066162 2106.366455,2384.701904 1964.747803,2470.353760 
	C1962.193481,2471.898438 1959.724243,2473.602783 1957.368286,2475.429688 
	C1957.084839,2475.649414 1957.765991,2477.113037 1958.000000,2478.000000 
z" />
	<path fill="#FFFFFF" opacity="1.000000" stroke="none" d="
M1958.937256,2478.000000 
	C1957.765991,2477.113037 1957.084839,2475.649414 1957.368286,2475.429688 
	C1959.724243,2473.602783 1962.193481,2471.898438 1964.747803,2470.353760 
	C2106.366455,2384.701904 2247.995117,2299.066162 2389.627686,2213.436768 
	C2426.388184,2191.211670 2463.202148,2169.074219 2499.922852,2146.783936 
	C2532.896729,2126.768066 2565.690186,2106.453613 2598.717529,2086.527588 
	C2652.837158,2053.876221 2707.162842,2021.566772 2761.259033,1988.877441 
	C2926.775879,1888.859009 3092.217529,1788.715820 3257.703125,1688.645874 
	C3368.258301,1621.792603 3478.842041,1554.986450 3589.407471,1488.150269 
	C3704.241699,1418.734009 3819.100586,1349.359009 3933.861328,1279.821655 
	C3949.211914,1270.520142 3964.714600,1261.246582 3978.965820,1250.407349 
	C3999.269043,1234.964966 4010.970215,1213.482544 4017.664062,1189.009033 
	C4018.940430,1184.342773 4015.605225,1178.803589 4021.259766,1175.497314 
	C4022.000000,1609.887207 4022.000000,2043.774414 4022.000000,2478.000000 
	C3334.625000,2478.000000 2647.249756,2478.000000 1958.937256,2478.000000 
z" />
</svg>